<?xml version="1.0" standalone="no"?>
<!DOCTYPE svg PUBLIC "-//W3C//DTD SVG 20010904//EN"
 "http://www.w3.org/TR/2001/REC-SVG-20010904/DTD/svg10.dtd">
<svg version="1.0" xmlns="http://www.w3.org/2000/svg"
 width="320.000000pt" height="320.000000pt" viewBox="0 0 320.000000 320.000000"
 preserveAspectRatio="xMidYMid meet">
<metadata>
Created by potrace 1.14, written by Peter Selinger 2001-2017
</metadata>
<g transform="translate(0.000000,320.000000) scale(0.100000,-0.100000)"
fill="#000000" stroke="none">
<path d="M1327 2362 c-11 -12 -19 -45 -23 -98 -4 -43 -11 -87 -16 -98 -6 -10
-39 -31 -74 -47 l-64 -29 -86 65 c-47 36 -93 65 -102 65 -9 0 -78 -62 -154
-138 -103 -103 -138 -144 -138 -163 0 -14 17 -45 41 -74 74 -90 84 -127 49
-195 -26 -50 -38 -56 -140 -70 -109 -14 -120 -25 -120 -124 0 -39 -4 -76 -8
-81 -4 -6 -38 -33 -77 -60 -114 -80 -224 -171 -323 -267 l-92 -91 2 -191 3
-191 70 -17 c39 -9 106 -16 150 -16 l80 -1 -62 18 c-123 35 -167 97 -139 194
32 108 129 229 294 364 l100 83 7 -29 c9 -43 21 -48 118 -59 70 -8 94 -15 113
-33 13 -12 24 -29 24 -36 0 -8 7 -27 16 -44 18 -36 13 -54 -24 -94 -85 -91
-92 -136 -35 -209 41 -53 96 -86 142 -86 17 0 72 13 123 29 112 36 269 81 280
81 18 0 7 -49 -12 -55 -11 -4 -18 -10 -15 -14 2 -5 -6 -8 -18 -7 -12 0 -46 -5
-76 -13 -39 -10 -50 -16 -40 -23 11 -8 10 -9 -4 -4 -27 9 -82 -5 -65 -16 8 -6
2 -7 -19 -3 -17 3 -34 2 -37 -4 -4 -6 -13 -8 -21 -4 -8 3 -15 1 -15 -5 0 -5
-6 -10 -12 -9 -34 1 -59 -4 -55 -10 3 -5 -7 -9 -21 -9 -15 -1 -40 -4 -57 -7
-154 -31 -272 -49 -335 -52 -41 -3 -100 -7 -130 -10 -57 -5 -284 10 -314 21
-14 5 -16 -3 -16 -68 l0 -75 58 -14 c74 -18 413 -19 537 -1 148 22 265 43 350
64 44 11 87 21 95 23 8 2 60 15 115 29 129 34 135 33 135 -3 0 -16 7 -37 16
-45 8 -9 11 -16 5 -16 -19 0 -12 -36 12 -58 22 -21 32 -22 205 -22 174 0 182
1 205 22 20 19 25 36 31 107 4 46 10 90 13 98 6 14 63 48 63 37 0 -4 6 -2 13
4 6 5 27 13 45 17 35 7 73 -11 126 -60 15 -14 32 -22 38 -19 7 4 8 2 4 -4 -9
-16 41 -35 61 -24 32 18 273 267 273 282 0 9 -18 42 -40 73 -22 30 -40 61 -40
69 1 7 68 51 150 98 83 46 150 88 150 92 0 4 3 7 8 6 9 -4 75 36 127 76 21 17
48 36 60 42 11 6 19 16 17 23 -1 7 2 10 8 6 11 -7 122 84 115 95 -3 4 3 14 13
21 15 13 16 12 3 -3 -18 -24 -2 -22 27 2 14 11 20 24 16 31 -4 8 -3 9 5 5 6
-4 45 22 95 66 l84 73 1 281 1 282 -27 7 c-16 4 -39 9 -53 11 -14 2 -43 6 -65
10 -22 3 -85 8 -140 10 l-100 3 50 -20 c28 -10 56 -17 63 -14 7 3 11 1 8 -3
-8 -14 47 -40 77 -37 16 2 25 -1 21 -7 -3 -5 -13 -7 -21 -4 -9 4 -13 1 -10 -6
2 -7 11 -12 20 -12 9 1 14 -2 12 -7 -3 -4 3 -26 14 -47 22 -43 19 -95 -11
-178 -36 -100 -158 -251 -291 -360 -45 -37 -84 -70 -87 -73 -5 -6 -41 -31
-165 -116 -38 -26 -69 -52 -67 -57 1 -5 -2 -7 -7 -4 -5 4 -25 -4 -45 -16 -97
-64 -161 -101 -261 -153 -60 -32 -114 -62 -120 -68 -7 -7 -5 -7 4 -2 9 5 12 4
7 -3 -4 -6 -13 -9 -20 -6 -7 3 -48 -13 -90 -34 -43 -22 -75 -37 -71 -34 3 3
-33 45 -80 92 l-86 86 41 19 c54 24 121 102 144 166 14 38 17 69 14 122 -11
162 -123 273 -286 284 -157 11 -298 -100 -320 -254 -4 -26 -4 -82 -1 -123 11
-132 10 -550 -1 -550 -26 0 -156 98 -213 160 -311 341 -197 888 225 1080 318
144 717 9 876 -297 62 -119 86 -231 78 -363 -3 -58 -9 -120 -12 -139 l-7 -34
59 32 c33 17 118 71 189 119 l130 87 3 71 c4 106 -4 121 -75 129 -144 15 -146
16 -175 70 -41 75 -37 99 27 180 30 38 55 74 55 80 0 6 -9 27 -19 48 l-19 37
207 0 c137 0 225 -5 263 -14 53 -12 114 -48 146 -86 11 -13 12 -6 9 39 -4 47
-9 59 -40 87 -67 62 -109 69 -414 69 l-272 0 -65 64 c-85 84 -106 85 -180 12
-66 -65 -99 -72 -178 -37 -62 27 -59 21 -74 161 -10 97 -6 95 -234 95 -178 0
-198 -2 -213 -18z m1697 -672 c-6 -6 -10 -3 -10 10 0 13 4 16 10 10 7 -7 7
-13 0 -20z m-344 -534 c0 -2 -7 -7 -16 -10 -8 -3 -12 -2 -9 4 6 10 25 14 25 6z
m-103 -54 c9 -5 6 -12 -10 -21 -20 -13 -21 -13 -9 1 10 13 10 17 0 21 -7 3 -8
6 -3 6 6 0 15 -3 22 -7z m-342 -42 c3 -6 -1 -7 -9 -4 -18 7 -21 14 -7 14 6 0
13 -4 16 -10z m129 -246 c5 -14 4 -15 -9 -4 -17 14 -19 20 -6 20 5 0 12 -7 15
-16z m-981 -121 c-7 -2 -19 -2 -25 0 -7 3 -2 5 12 5 14 0 19 -2 13 -5z m607
-103 c0 -5 -4 -10 -10 -10 -5 0 -10 5 -10 10 0 6 5 10 10 10 6 0 10 -4 10 -10z
m-843 -6 c-3 -3 -12 -4 -19 -1 -8 3 -5 6 6 6 11 1 17 -2 13 -5z m-430 -80 c-3
-3 -12 -4 -19 -1 -8 3 -5 6 6 6 11 1 17 -2 13 -5z m590 -46 c-3 -8 -6 -5 -6 6
-1 11 2 17 5 13 3 -3 4 -12 1 -19z m-260 6 c-3 -3 -12 -4 -19 -1 -8 3 -5 6 6
6 11 1 17 -2 13 -5z m-240 -80 c-3 -3 -12 -4 -19 -1 -8 3 -5 6 6 6 11 1 17 -2
13 -5z"/>
</g>
</svg>
